solid ascii_stl
  facet normal 0 -0 -1
    outer loop
      vertex 123.05254364013672 216.04107666015625 -0.15131090581417084
      vertex 123.05254364013672 164.97946166992188 -0.15131090581417084
      vertex 102.78482055664062 164.97946166992188 -0.15131090581417084
    endloop
  endfacet
  facet normal 0 0 1
    outer loop
      vertex 102.78482055664062 216.04107666015625 9.49704647064209
      vertex 102.78482055664062 164.97946166992188 9.49704647064209
      vertex 123.05254364013672 164.97946166992188 9.49704647064209
    endloop
  endfacet
  facet normal -1 0 0
    outer loop
      vertex 102.78482055664062 216.04107666015625 -0.15131090581417084
      vertex 102.78482055664062 164.97946166992188 -0.15131090581417084
      vertex 102.78482055664062 164.97946166992188 9.49704647064209
    endloop
  endfacet
  facet normal 0 -1 0
    outer loop
      vertex 102.78482055664062 164.97946166992188 -0.15131090581417084
      vertex 123.05254364013672 164.97946166992188 -0.15131090581417084
      vertex 123.05254364013672 164.97946166992188 9.49704647064209
    endloop
  endfacet
  facet normal 1 0 0
    outer loop
      vertex 123.05254364013672 164.97946166992188 -0.15131090581417084
      vertex 123.05254364013672 216.04107666015625 -0.15131090581417084
      vertex 123.05254364013672 216.04107666015625 9.49704647064209
    endloop
  endfacet
  facet normal 0 1 0
    outer loop
      vertex 123.05254364013672 216.04107666015625 -0.15131090581417084
      vertex 102.78482055664062 216.04107666015625 -0.15131090581417084
      vertex 102.78482055664062 216.04107666015625 9.49704647064209
    endloop
  endfacet
  facet normal -0 0 -1
    outer loop
      vertex 123.05254364013672 216.04107666015625 -0.15131090581417084
      vertex 102.78482055664062 164.97946166992188 -0.15131090581417084
      vertex 102.78482055664062 216.04107666015625 -0.15131090581417084
    endloop
  endfacet
  facet normal -0 0 1
    outer loop
      vertex 102.78482055664062 216.04107666015625 9.49704647064209
      vertex 123.05254364013672 164.97946166992188 9.49704647064209
      vertex 123.05254364013672 216.04107666015625 9.49704647064209
    endloop
  endfacet
  facet normal -1 0 0
    outer loop
      vertex 102.78482055664062 216.04107666015625 -0.15131090581417084
      vertex 102.78482055664062 164.97946166992188 9.49704647064209
      vertex 102.78482055664062 216.04107666015625 9.49704647064209
    endloop
  endfacet
  facet normal 0 -1 0
    outer loop
      vertex 102.78482055664062 164.97946166992188 -0.15131090581417084
      vertex 123.05254364013672 164.97946166992188 9.49704647064209
      vertex 102.78482055664062 164.97946166992188 9.49704647064209
    endloop
  endfacet
  facet normal 1 0 0
    outer loop
      vertex 123.05254364013672 164.97946166992188 -0.15131090581417084
      vertex 123.05254364013672 216.04107666015625 9.49704647064209
      vertex 123.05254364013672 164.97946166992188 9.49704647064209
    endloop
  endfacet
  facet normal 0 1 -0
    outer loop
      vertex 123.05254364013672 216.04107666015625 -0.15131090581417084
      vertex 102.78482055664062 216.04107666015625 9.49704647064209
      vertex 123.05254364013672 216.04107666015625 9.49704647064209
    endloop
  endfacet
endsolid ascii_stl
