solid ascii_stl
  facet normal 0 -0 -1
    outer loop
      vertex 117.74393463134766 220 -1.629880605480416E-11
      vertex 117.74393463134766 164.97946166992188 -1.629880605480416E-11
      vertex 101 164.97946166992188 -1.629880605480416E-11
    endloop
  endfacet
  facet normal 0 0 1
    outer loop
      vertex 101 220 9.67882251739502
      vertex 101 164.97946166992188 9.67882251739502
      vertex 117.74393463134766 164.97946166992188 9.67882251739502
    endloop
  endfacet
  facet normal -1 0 0
    outer loop
      vertex 101 220 -1.629880605480416E-11
      vertex 101 164.97946166992188 -1.629880605480416E-11
      vertex 101 164.97946166992188 9.67882251739502
    endloop
  endfacet
  facet normal 0 -1 0
    outer loop
      vertex 101 164.97946166992188 -1.629880605480416E-11
      vertex 117.74393463134766 164.97946166992188 -1.629880605480416E-11
      vertex 117.74393463134766 164.97946166992188 9.67882251739502
    endloop
  endfacet
  facet normal 1 0 0
    outer loop
      vertex 117.74393463134766 164.97946166992188 -1.629880605480416E-11
      vertex 117.74393463134766 220 -1.629880605480416E-11
      vertex 117.74393463134766 220 9.67882251739502
    endloop
  endfacet
  facet normal 0 1 0
    outer loop
      vertex 117.74393463134766 220 -1.629880605480416E-11
      vertex 101 220 -1.629880605480416E-11
      vertex 101 220 9.67882251739502
    endloop
  endfacet
  facet normal -0 0 -1
    outer loop
      vertex 117.74393463134766 220 -1.629880605480416E-11
      vertex 101 164.97946166992188 -1.629880605480416E-11
      vertex 101 220 -1.629880605480416E-11
    endloop
  endfacet
  facet normal -0 0 1
    outer loop
      vertex 101 220 9.67882251739502
      vertex 117.74393463134766 164.97946166992188 9.67882251739502
      vertex 117.74393463134766 220 9.67882251739502
    endloop
  endfacet
  facet normal -1 0 0
    outer loop
      vertex 101 220 -1.629880605480416E-11
      vertex 101 164.97946166992188 9.67882251739502
      vertex 101 220 9.67882251739502
    endloop
  endfacet
  facet normal 0 -1 0
    outer loop
      vertex 101 164.97946166992188 -1.629880605480416E-11
      vertex 117.74393463134766 164.97946166992188 9.67882251739502
      vertex 101 164.97946166992188 9.67882251739502
    endloop
  endfacet
  facet normal 1 0 0
    outer loop
      vertex 117.74393463134766 164.97946166992188 -1.629880605480416E-11
      vertex 117.74393463134766 220 9.67882251739502
      vertex 117.74393463134766 164.97946166992188 9.67882251739502
    endloop
  endfacet
  facet normal 0 1 -0
    outer loop
      vertex 117.74393463134766 220 -1.629880605480416E-11
      vertex 101 220 9.67882251739502
      vertex 117.74393463134766 220 9.67882251739502
    endloop
  endfacet
endsolid ascii_stl
