solid ascii_stl
  facet normal 0 -0 -1
    outer loop
      vertex 831.02001953125 188.856201171875 0
      vertex 831.02001953125 127.856201171875 0
      vertex 794.0887451171875 127.856201171875 0
    endloop
  endfacet
  facet normal 0 0 1
    outer loop
      vertex 794.0887451171875 188.856201171875 17
      vertex 794.0887451171875 127.856201171875 17
      vertex 831.02001953125 127.856201171875 17
    endloop
  endfacet
  facet normal -1 0 0
    outer loop
      vertex 794.0887451171875 188.856201171875 0
      vertex 794.0887451171875 127.856201171875 0
      vertex 794.0887451171875 127.856201171875 17
    endloop
  endfacet
  facet normal 0 -1 0
    outer loop
      vertex 794.0887451171875 127.856201171875 0
      vertex 831.02001953125 127.856201171875 0
      vertex 831.02001953125 127.856201171875 17
    endloop
  endfacet
  facet normal 1 0 0
    outer loop
      vertex 831.02001953125 127.856201171875 0
      vertex 831.02001953125 188.856201171875 0
      vertex 831.02001953125 188.856201171875 17
    endloop
  endfacet
  facet normal 0 1 0
    outer loop
      vertex 831.02001953125 188.856201171875 0
      vertex 794.0887451171875 188.856201171875 0
      vertex 794.0887451171875 188.856201171875 17
    endloop
  endfacet
  facet normal -0 0 -1
    outer loop
      vertex 831.02001953125 188.856201171875 0
      vertex 794.0887451171875 127.856201171875 0
      vertex 794.0887451171875 188.856201171875 0
    endloop
  endfacet
  facet normal -0 0 1
    outer loop
      vertex 794.0887451171875 188.856201171875 17
      vertex 831.02001953125 127.856201171875 17
      vertex 831.02001953125 188.856201171875 17
    endloop
  endfacet
  facet normal -1 0 0
    outer loop
      vertex 794.0887451171875 188.856201171875 0
      vertex 794.0887451171875 127.856201171875 17
      vertex 794.0887451171875 188.856201171875 17
    endloop
  endfacet
  facet normal 0 -1 0
    outer loop
      vertex 794.0887451171875 127.856201171875 0
      vertex 831.02001953125 127.856201171875 17
      vertex 794.0887451171875 127.856201171875 17
    endloop
  endfacet
  facet normal 1 0 0
    outer loop
      vertex 831.02001953125 127.856201171875 0
      vertex 831.02001953125 188.856201171875 17
      vertex 831.02001953125 127.856201171875 17
    endloop
  endfacet
  facet normal 0 1 -0
    outer loop
      vertex 831.02001953125 188.856201171875 0
      vertex 794.0887451171875 188.856201171875 17
      vertex 831.02001953125 188.856201171875 17
    endloop
  endfacet
endsolid ascii_stl
